<?xml version="1.0" encoding="utf-8" standalone="no"?>
<!DOCTYPE svg PUBLIC "-//W3C//DTD SVG 1.1//EN" "http://www.w3.org/Graphics/SVG/1.1/DTD/svg11.dtd">
<svg xmlns="http://www.w3.org/2000/svg" xmlns:xl="http://www.w3.org/1999/xlink" version="1.1" viewBox="0 0 300 300" width="300px" height="300px" xmlns:dc="http://purl.org/dc/elements/1.1/"><metadata> Produced by OmniGraffle 6.2.5 <dc:date>2015-07-18 15:35:42 +0000</dc:date></metadata><defs/><g stroke="none" stroke-opacity="1" stroke-dasharray="none" fill="none" fill-opacity="1"><title>Canvas 14</title><g><title>Laag 1</title><path d="M 150 150 L 0 150 C -2842171e-20 67.157288 67.157288 2842171e-20 150 0 C 232.84271 -2842171e-20 300 67.157288 300 150 Z" fill="#333"/><path d="M 150 150 L 300 150 C 300 232.84271 232.84271 300 150 300 C 67.157288 300 2842171e-20 232.84271 0 150 Z" fill="#6cf"/><path d="M 131.81102 30.236175 C 135.50294 31.692948 138.96555 33.991985 141.93369 37.133287 C 153.00371 48.849 153.00371 67.84391 141.93369 79.559624 C 138.96554 82.70093 135.50293 84.99997 131.811 86.456743 C 141.88843 90.433134 153.67437 88.134097 161.77619 79.559624 C 172.84621 67.84391 172.84621 48.849 161.77619 37.133287 C 153.67437 28.558819 141.888446 26.25978 131.811016 30.236168 Z" fill="#ff6"/><circle cx="150" cy="240" r="30.000048" fill="#ff6"/><path d="M 55.27559 65.19685 L 56.866634 70.09358 L 62.01536 70.09358 L 57.849953 73.119925 L 59.440998 78.016655 L 55.27559 74.99031 L 51.110183 78.016655 L 52.701227 73.119925 L 48.53582 70.09358 L 53.684546 70.09358 Z" fill="#ff6"/><path d="M 92.125984 48.188976 L 93.71703 53.085706 L 98.865754 53.085706 L 94.700347 56.11205 L 96.29139 61.00878 L 92.125984 57.982436 L 87.960576 61.00878 L 89.55162 56.11205 L 85.386213 53.085706 L 90.53494 53.085706 Z" fill="#ff6"/><path d="M 202.67716 56.692913 L 204.26821 61.589643 L 209.41693 61.589643 L 205.25153 64.61599 L 206.84257 69.51272 L 202.67716 66.486373 L 198.51176 69.51272 L 200.1028 64.61599 L 195.93739 61.589643 L 201.08612 61.589643 Z" fill="#ff6"/><path d="M 92.125984 102.047243 L 93.71703 106.943974 L 98.865754 106.943973 L 94.700347 109.97032 L 96.29139 114.86705 L 92.125984 111.8407 L 87.960576 114.86705 L 89.55162 109.97032 L 85.386213 106.943973 L 90.53494 106.943974 Z" fill="#ff6"/><path d="M 185.66929 102.047243 L 187.26033 106.943974 L 192.40906 106.943973 L 188.24365 109.97032 L 189.8347 114.86705 L 185.66929 111.8407 L 181.50388 114.86705 L 183.09493 109.97032 L 178.92952 106.943973 L 184.07825 106.943974 Z" fill="#ff6"/><path d="M 239.52756 96.37795 L 241.1186 101.27468 L 246.26733 101.27468 L 242.10192 104.30103 L 243.69296 109.19776 L 239.52756 106.17141 L 235.36215 109.19776 L 236.9532 104.30103 L 232.78779 101.27468 L 237.93651 101.27468 Z" fill="#ff6"/></g></g></svg>
